<svg width="64" height="64" viewBox="0 0 64 64" fill="none" xmlns="http://www.w3.org/2000/svg">
  <rect width="64" height="64" rx="16" fill="#050505"/>
  <path d="M13 45V18h10.7c5.6 0 9.4 2.9 9.4 7.7 0 2.7-1.4 4.9-4.1 6.1 3.6 1 5.7 3.4 5.7 6.9 0 5.3-4.3 8.3-10.7 8.3H13Zm5.6-15.7h4.6c2.7 0 4.2-1.2 4.2-3.3 0-2.1-1.6-3.3-4.3-3.3h-4.5v6.6Zm0 11.2H24c3 0 4.8-1.3 4.8-3.7s-1.8-3.6-5-3.6h-5.2v7.3Z" fill="white"/>
  <path d="M36 45V18h10.7c5.6 0 9.4 2.9 9.4 7.7 0 2.7-1.4 4.9-4.1 6.1 3.6 1 5.7 3.4 5.7 6.9 0 5.3-4.3 8.3-10.7 8.3H36Zm5.6-15.7h4.6c2.7 0 4.2-1.2 4.2-3.3 0-2.1-1.6-3.3-4.3-3.3h-4.5v6.6Zm0 11.2H47c3 0 4.8-1.3 4.8-3.7s-1.8-3.6-5-3.6h-5.2v7.3Z" fill="#B99CFF"/>
</svg>
